<?xml version="1.0" encoding="UTF-8" standalone="no"?>
<svg
   xmlns:dc="http://purl.org/dc/elements/1.1/"
   xmlns:cc="http://creativecommons.org/ns#"
   xmlns:rdf="http://www.w3.org/1999/02/22-rdf-syntax-ns#"
   xmlns:svg="http://www.w3.org/2000/svg"
   xmlns="http://www.w3.org/2000/svg"
   xmlns:sodipodi="http://sodipodi.sourceforge.net/DTD/sodipodi-0.dtd"
   xmlns:inkscape="http://www.inkscape.org/namespaces/inkscape"
   inkscape:version="1.0 (4035a4fb49, 2020-05-01)"
   sodipodi:docname="Hunter's Guild Crest.svg"
   viewBox="0 0 240 240"
   height="240"
   width="240"
   id="svg2"
   version="1.1">
  <metadata
     id="metadata8">
    <rdf:RDF>
      <cc:Work
         rdf:about="">
        <dc:format>image/svg+xml</dc:format>
        <dc:type
           rdf:resource="http://purl.org/dc/dcmitype/StillImage" />
      </cc:Work>
    </rdf:RDF>
  </metadata>
  <defs
     id="defs6" />
  <sodipodi:namedview
     inkscape:current-layer="g10"
     inkscape:window-maximized="1"
     inkscape:window-y="-8"
     inkscape:window-x="-8"
     inkscape:cy="85.5326"
     inkscape:cx="81.408877"
     inkscape:zoom="1.5850977"
     showgrid="false"
     id="namedview4"
     inkscape:window-height="705"
     inkscape:window-width="1366"
     inkscape:pageshadow="2"
     inkscape:pageopacity="0"
     guidetolerance="10"
     gridtolerance="10"
     objecttolerance="10"
     borderopacity="1"
     bordercolor="#666666"
     pagecolor="#ffffff" />
  <g
     id="g10"
     inkscape:label="Image"
     inkscape:groupmode="layer">
    <path
       sodipodi:nodetypes="cccccccscscccccccccscscccccccccscscccccccccscsccccccccccccccccccccccccccccsccccccccccccccccccccc"
       d="m 45.998047,40.023438 c 4.620232,12.89422 0.303658,32.265232 2.521968,30.124482 l 22.489751,-21.552217 -15.929688,0.472656 0.945313,6.308594 c 4.14837,-3.6213 7.120883,-5.940965 7.097656,-4.416015 -1.020295,3.26317 -5.093458,6.804106 -9.226328,8.910406 0,0 -2.227932,-13.559997 -1.296408,-13.658503 7.66436,-0.810484 23.428986,0.580128 23.428986,0.580128 -24.635253,24.643169 -30.61921,27.267788 -27.734375,27.648437 16.962655,2.238191 37.251195,14.858577 72.074218,44.597654 -24.834813,20.83438 -47.543604,40.43173 -72.974609,44.67188 1.31539,12.89535 0.936863,23.0347 -1.804687,33.46484 18.019689,-5.77934 33.369265,-0.46138 31.228515,-2.67969 l -20.984375,-22.10937 -0.308593,15.03711 7.089843,-0.0527 c -3.6213,-4.14837 -7.123855,-8.22491 -4.416015,-7.09765 3.26317,2.38661 6.567528,4.71012 8.673828,8.83203 0,0 -13.66437,1.86257 -14.09375,0.50781 -1.8862,-5.95125 0.472656,-23.02734 0.472656,-23.02734 25.758411,24.63525 29.176542,29.49954 28.763672,26.61914 -0.75847,-5.29145 8.109918,-33.6896 43.371095,-68.44922 7.53844,6.78952 40.6134,45.18425 44.94922,71.91992 12.89535,-1.31539 22.53275,-1.16538 32.96289,1.57617 -4.21801,-10.54757 -0.46138,-33.36926 -2.67969,-31.22851 l -22.55469,21.76562 15.92969,-0.47265 -0.94531,-6.3086 c -4.14837,3.6213 -8.22492,7.12386 -7.09766,4.41602 2.38661,-3.26317 4.71012,-6.56753 8.83203,-8.67383 0,0 3.08914,12.66046 1.73438,13.08984 -5.95125,1.8862 -23.02735,-0.47265 -23.02735,-0.47265 24.63525,-25.75842 28.27298,-28.17264 25.39258,-27.75977 -5.29145,0.75847 -39.93495,-14.57832 -68.44922,-43.37109 3.63515,-4.38406 35.40568,-36.354988 71.91993,-44.949221 -3.01463,-3.715047 -2.25073,-22.434082 1.57617,-32.96289 -10.54757,4.21801 -33.36927,0.461377 -31.22852,2.679687 l 20.6616,23.185564 0.63137,-16.560564 -5.99315,1.655048 c 3.6213,4.14837 5.70438,7.751759 2.99654,6.624499 -3.26317,-2.38661 -6.01552,-4.78898 -8.12182,-8.91089 0,0 12.76401,-3.539869 12.93213,-2.128672 0.62445,5.241514 0.0794,22.869625 0.0794,22.869624 C 192.51957,74.091692 168.43829,42.834424 168.2852,45.740234 167.62419,58.286757 151.81424,85.202029 124.9141,114.18945 102.0769,89.104541 83.831363,65.581773 81.861328,42.158203 69.189023,42.358351 56.762759,41.984319 45.998047,40.023438 Z m 27.546875,16.009765 c 1.089141,1.933874 2.232594,3.329255 3.123047,7.25 l -8.810547,-1.785156 z m 103.332028,3.744141 c 2.58846,1.547294 4.36307,3.582181 5.46485,6.021484 l -10.14844,3.123047 z M 66.630859,62.949219 c 1.595765,2.267658 2.082612,4.535076 1.896485,6.802734 L 61.5,67.744141 Z m 9.589844,2.117187 c 1.312232,2.099642 2.408446,4.287866 2.677735,6.804688 l -8.140626,-1.673828 z m 6.580078,5.353516 c 1.576491,3.10776 2.802513,6.274711 3.123047,9.591797 -2.931871,-0.294747 -5.861544,-0.60842 -8.58789,-2.341797 z m 42.316409,46.847658 c 0.005,-10e-6 0.009,-10e-6 0.0137,0 1.1083,8.2e-4 2.00619,0.84976 2.00586,1.89648 -8.1e-4,1.04596 -0.89837,1.89371 -2.00586,1.89453 -1.10825,2e-4 -2.007,-0.84785 -2.00781,-1.89453 -3.6e-4,-1.04242 0.89042,-1.88958 1.99414,-1.89648 z m 55.23437,45.57812 9.85742,4.65235 -4.57421,6.30859 z m -100.833982,0.20313 -0.558594,10.25976 -8.58789,-8.02929 c 2.728365,-1.70338 5.824064,-2.30927 9.146484,-2.23047 z m -10.818359,2.11914 -0.111328,10.59375 -7.472657,-7.58399 c 1.689395,-1.8422 4.413077,-2.64907 7.583985,-3.00976 z m 100.769531,5.95703 11.83008,5.2832 -6.38867,6.70313 z m -92.181641,3.07617 c 0.797729,3.25992 -0.170576,6.16629 -0.78125,9.14453 l -6.580078,-6.6914 c 1.569266,-1.17155 4.317749,-1.8713 7.361328,-2.45313 z"
       style="fill:#d71921;fill-opacity:1;stroke:none;stroke-width:1px;stroke-linecap:butt;stroke-linejoin:miter;stroke-opacity:1"
       id="path837" />
    <g
       id="g1162">
      <path
         id="path966"
         style="fill:#d71921;stroke:none;stroke-width:1px;stroke-linecap:butt;stroke-linejoin:miter;stroke-opacity:1;fill-opacity:1"
         d="M 208.47461 89.876953 L 212.89062 107.06836 L 203.66406 96.736328 C 204.04854 103.18759 205.5428 109.50069 207.60547 115.74219 L 226.84766 108.48828 C 221.37687 101.63069 215.2068 95.473133 208.47461 89.876953 z M 189.07812 92.587891 C 182.22054 98.058681 176.06298 104.22875 170.4668 110.96094 L 187.6582 106.54492 L 177.32617 115.77148 C 183.77745 115.387 190.09053 113.89275 196.33203 111.83008 L 189.07812 92.587891 z M 199.87891 105.72656 C 199.04216 110.35431 199.66133 114.3963 200.90234 118.1875 L 206.34375 115.97852 L 199.87891 105.72656 z M 196.56836 113.0918 L 186.31641 119.55664 C 190.94415 120.39339 194.98614 119.77421 198.77734 118.5332 L 196.56836 113.0918 z M 208.95312 118.80859 C 206.30592 118.89478 203.83825 119.42749 201.46875 120.20312 L 203.67773 125.64453 L 213.92969 119.17969 C 212.19429 118.86591 210.54145 118.75688 208.95312 118.80859 z M 199.12109 120.41797 L 193.67969 122.62695 L 200.14453 132.87891 C 200.98128 128.25117 200.3621 124.20917 199.12109 120.41797 z M 192.41797 122.86328 L 173.17578 130.11719 C 178.64657 136.97477 184.81664 143.13234 191.54883 148.72852 L 187.13281 131.53711 L 196.35938 141.86914 C 195.9749 135.41786 194.48064 129.10478 192.41797 122.86328 z M 222.91992 122.96484 C 216.46864 123.34932 210.15556 124.84358 203.91406 126.90625 L 211.16797 146.14844 C 218.02555 140.67765 224.18312 134.50758 229.7793 127.77539 L 212.58789 132.19141 L 222.91992 122.96484 z " />
      <path
         id="path999"
         style="fill:#d71921;stroke:none;stroke-width:1px;stroke-linecap:butt;stroke-linejoin:miter;stroke-opacity:1;fill-opacity:1"
         d="M 199.34961 146.0957 L 193.55078 152.50977 L 199.34961 158.53125 C 201.49459 156.67251 205.10904 154.28355 204.92578 152.3418 C 204.69421 149.88821 201.86028 147.79719 199.34961 146.0957 z M 200.74414 150.61328 C 201.50162 153.57461 200.11545 154.63945 197.00781 154.18164 L 197.23047 150.66992 L 200.74414 150.61328 z " />
      <path
         id="path1019"
         style="fill:#d71921;stroke:none;stroke-width:1px;stroke-linecap:butt;stroke-linejoin:miter;stroke-opacity:1;fill-opacity:1"
         d="M 232.04492 112.9668 L 225.81445 118.95898 C 228.25855 121.04238 230.50398 125.33359 233.42383 123.33594 L 237.13086 120.06445 C 239.322 118.46989 236.14278 115.13711 232.04492 112.9668 z M 229.83594 117.02734 L 233.9375 117.10547 C 234.33413 119.9457 233.2482 121.48 230.07227 121.16797 L 229.83594 117.02734 z " />
      <path
         id="path1024"
         style="fill:#d71921;stroke:none;stroke-width:1px;stroke-linecap:butt;stroke-linejoin:miter;stroke-opacity:1;fill-opacity:1"
         d="M 199.98828 80.791016 L 194.0332 86.46875 C 197.5827 92.918629 201.44658 93.004867 205.62695 86.626953 L 199.98828 80.791016 z M 198.29297 84.970703 L 201.72266 85.009766 C 202.19785 87.87703 200.36718 88.439954 198.25195 88.716797 L 198.29297 84.970703 z " />
      <path
         id="path1028"
         style="fill:#d71921;stroke:none;stroke-width:1px;stroke-linecap:butt;stroke-linejoin:miter;stroke-opacity:1;fill-opacity:1"
         d="M 167.0625 113.58789 L 160.81836 119.88867 C 165.10435 126.28555 169.10291 125.83362 172.86328 119.7207 L 167.0625 113.58789 z M 164.93555 118.21094 L 168.79883 118.21094 C 168.22858 122.18957 166.51624 121.72753 165.05273 122.23242 L 164.93555 118.21094 z " />
    </g>
    <path
       sodipodi:nodetypes="cccc"
       id="path1035"
       d="m 148.77323,110.74349 -7.36059,12.2119 15.27881,-0.16729 c -1.48274,-3.90972 -4.88211,-7.99368 -7.91822,-12.04461 z"
       style="fill:#d71921;stroke:none;stroke-width:1px;stroke-linecap:butt;stroke-linejoin:miter;stroke-opacity:1;fill-opacity:1" />
    <g
       id="g1155">
      <path
         id="path1037"
         style="fill:#d71921;stroke:none;stroke-width:1px;stroke-linecap:butt;stroke-linejoin:miter;stroke-opacity:1;fill-opacity:1"
         d="M 124.68359 133.94141 C 124.68359 133.94141 119.91404 141.45411 117.24414 146.18164 C 116.57542 147.36573 122.00485 146.05109 121.20703 147.15234 C 109.79723 162.90156 106.91516 159.67402 111.11328 165.68359 C 107.59563 169.8085 106.84474 172.6027 112.84766 176.96094 C 106.46135 182.68098 110.48872 187.04301 116.71289 192.73242 L 97.943359 212.76367 C 99.516046 217.33927 102.45181 218.73376 105.9082 218.91406 C 110.37882 217.49214 118.66539 206.84942 125.38672 199.98828 C 125.38672 199.98828 142.70046 217.52547 145.15234 219.76172 C 146.3 220.80845 152.2545 215.0549 151.69727 213.2168 L 132.37695 190.48828 C 136.23581 185.40274 145.22574 179.84181 137.33008 177.22656 C 144.42172 171.02624 143.48855 169.75573 138.24023 163.55469 C 145.97145 156.64147 125.64342 147.16179 129.64453 147.15234 C 131.17245 147.14834 132.17887 146.84974 132.34766 146.07031 C 132.57993 144.99772 131.28524 143.11816 124.68359 133.94141 z M 125.99023 148.26172 C 126.35798 148.2693 126.73397 148.47215 127.12109 148.88672 L 136.26953 158.34961 C 137.73514 159.59563 137.6158 161.07352 136.0332 162.76562 L 132.01172 167.8125 C 129.9034 169.83574 127.80075 167.42309 129.17188 165.76172 L 131.30078 163.16016 C 133.60377 160.2343 132.4795 159.41321 131.61719 158.42969 L 127.51562 154.25 C 125.98167 152.78823 124.48114 152.66448 123.02148 154.25 L 118.68359 158.74414 C 117.7723 159.81694 116.63071 160.86043 118.52539 162.29297 L 134.84961 178.61719 C 136.72892 180.33988 136.9812 180.56051 135.2832 182.51953 C 129.75772 188.93463 116.12095 206.30283 106.61719 214.8125 C 105.54197 216.42043 102.37065 214.91691 103.38477 211.58008 L 129.80273 183.58398 C 131.00875 182.5789 131.49621 181.49435 130.03906 180.19336 L 113.47852 164.97461 C 112.25764 163.58143 112.40826 162.1881 113.71484 160.79492 L 124.91406 148.80859 C 125.26402 148.44262 125.62249 148.25414 125.99023 148.26172 z M 119.45508 174.42773 C 120.64866 174.47796 122.11445 175.77615 120.99023 177.33594 L 117.08008 182.28711 C 118.5051 183.72136 119.6723 184.95166 120.79883 187.38086 C 120.60091 188.49028 120.04006 189.23667 118.79297 189.29688 L 112.32422 182.16992 L 118.45703 174.83008 C 118.6882 174.53339 119.05722 174.41099 119.45508 174.42773 z M 129.53516 193.82812 L 148.16016 213.28906 C 148.43197 214.87302 147.72113 215.7208 146.20898 215.9668 C 135.30235 206.85896 127.51031 196.51248 127.97461 195.72461 L 129.53516 193.82812 z " />
      <path
         style="fill:#d71921;stroke:none;stroke-width:1px;stroke-linecap:butt;stroke-linejoin:miter;stroke-opacity:1;fill-opacity:1"
         d="m 125.57621,202.75093 c 16.96082,16.95141 14.34029,13.27164 -0.11153,30.78067 -12.82813,-18.66897 -16.19108,-11.10889 0.11153,-30.78067 z"
         id="path1049"
         sodipodi:nodetypes="ccc" />
      <path
         id="path1051"
         style="fill:#d71921;stroke:none;stroke-width:1px;stroke-linecap:butt;stroke-linejoin:miter;stroke-opacity:1;fill-opacity:1"
         d="M 148.53125 177.47266 C 147.28666 177.0754 146.01212 183.55657 151.84375 185.20117 C 153.60144 184.23214 152.31878 180.78105 148.53125 177.47266 z M 154.5957 177.58398 C 154.54137 177.59031 154.49238 177.60509 154.44727 177.63086 C 153.00374 178.45546 155.91867 185.49298 159.09961 185.87109 C 162.18114 186.23739 156.27989 177.38785 154.5957 177.58398 z M 144.54883 180.9043 C 142.97125 183.08863 144.93364 186.02756 147.26953 188.94727 C 148.68199 188.89217 150.1224 188.87466 149.79297 186.46289 L 144.54883 180.9043 z M 154.44727 184.92578 L 151.13477 188.67188 C 150.55199 189.44977 149.7951 190.15187 151.37109 191.86523 L 155.43164 196.12305 L 158.50781 193.12695 C 159.53829 190.86927 158.99188 190.42191 158.58594 189.81445 L 154.44727 184.92578 z M 140.45898 184.95508 C 140.36138 184.96231 140.27886 184.98981 140.21289 185.04297 C 139.57896 185.81098 143.45777 192.78069 145.6543 191.9043 C 146.64801 189.65445 141.9231 184.84659 140.45898 184.95508 z M 138.2793 188.43555 C 136.13139 190.2846 138.46754 192.84631 141.08008 195.45312 C 143.07568 195.99802 143.22042 194.85293 142.81445 193.20508 C 141.7916 191.40534 140.0168 189.92901 138.2793 188.43555 z M 148.96484 190.99805 L 143.99805 196.12305 C 143.00664 197.01098 142.42175 197.97298 143.7207 199.27734 L 147.98047 204.00977 L 154.0918 197.97656 L 148.96484 190.99805 z " />
      <path
         id="path1066"
         style="fill:#d71921;stroke:none;stroke-width:1px;stroke-linecap:butt;stroke-linejoin:miter;stroke-opacity:1;fill-opacity:1"
         d="M 101.53125 178.06445 C 100.28407 178.86675 98.513978 179.69792 100.42773 181.77148 L 103.66016 185.55664 C 105.05738 187.02448 107.31123 185.07482 106.02734 183.625 L 101.53125 178.06445 z M 98.535156 180.94336 C 97.150315 182.08681 95.462977 183.5889 97.154297 186.22656 L 100.625 190.32812 L 102.5957 188.63281 C 103.86086 187.36601 103.11748 186.62653 102.43945 185.87109 L 98.535156 180.94336 z M 94.404297 185.35352 C 88.707222 190.48647 88.338446 190.64717 92.789062 195.5293 C 98.146004 191.68807 99.835614 189.20719 94.404297 185.35352 z M 107.69531 186.6582 C 107.23914 186.65773 106.70822 186.83699 106.14258 187.27734 L 102.6582 190.70703 C 101.22268 192.20639 103.81768 193.88941 105.30664 192.6582 L 108.76367 189.33984 C 109.76605 188.28012 109.06383 186.65962 107.69531 186.6582 z M 110.74609 190.2832 C 110.57355 190.28211 110.38552 190.30253 110.18555 190.34375 L 106.31055 194.27539 C 102.96398 194.60013 106.65722 196.43723 108.56836 196.17188 L 110.51953 194.41406 C 112.38158 191.39296 111.95387 190.29088 110.74609 190.2832 z M 99.480469 191.82227 L 96.078125 195.61328 C 94.385649 197.12423 94.713886 198.37698 95.910156 199.51758 L 98.699219 202.80664 C 99.530149 203.5005 100.96144 204.4196 102.15625 203.08594 L 104.27539 200.79883 C 106.26518 198.7928 105.31912 197.80756 104.21875 196.56055 L 99.480469 191.82227 z " />
    </g>
    <path
       sodipodi:nodetypes="cccc"
       id="path1079"
       d="m 101.96532,110.95531 c 0,0 -7.767656,12.85409 -7.531078,12.77523 0.236579,-0.0789 15.141018,-0.23657 15.141018,-0.23657 -0.76915,-4.53305 -4.29803,-8.51416 -7.60994,-12.53866 z"
       style="fill:#d71921;stroke:none;stroke-width:1px;stroke-linecap:butt;stroke-linejoin:miter;stroke-opacity:1;fill-opacity:1" />
    <path
       sodipodi:nodetypes="cccc"
       id="path1101"
       d="m 36.747,102.491 v 4.405 l 4.851513,-0.11161 c -0.08702,-2.11326 0.923344,-5.05443 -4.851513,-4.29339 z"
       style="fill:#d71921;stroke:none;stroke-width:1px;stroke-linecap:butt;stroke-linejoin:miter;stroke-opacity:1;fill-opacity:1" />
    <path
       sodipodi:nodetypes="cccc"
       id="path1103"
       d="m 44.052045,102.99257 4.753306,-0.0327 -0.01353,4.04754 c -3.222186,0.22616 -5.100546,-0.19006 -4.739777,-4.01487 z"
       style="fill:#d71921;stroke:none;stroke-width:1px;stroke-linecap:butt;stroke-linejoin:miter;stroke-opacity:1;fill-opacity:1" />
    <g
       id="g1149">
      <path
         id="path1081"
         style="fill:#d71921;stroke:none;stroke-width:1px;stroke-linecap:butt;stroke-linejoin:miter;stroke-opacity:1;fill-opacity:1"
         d="M 31.84375 102.81836 C 30.945674 102.85313 30.713794 103.36984 30.765625 107.24609 L 30.765625 115.53906 C 30.894603 116.78443 30.325195 117.50347 28.716797 117.43555 L 23.753906 117.43555 C 22.31066 117.31873 21.386277 117.83099 21.412109 119.49805 L 21.523438 131.87695 C 21.829774 134.54226 20.835827 133.77352 19.794922 132.88086 L 14.392578 128.22461 L 11.513672 130.94531 L 40.888672 158.7832 C 42.995488 160.94253 44.784677 160.35795 46.447266 158.66602 L 76.003906 130.09375 L 72.992188 127.19336 L 66.580078 133.27148 C 64.627151 134.80598 64.631157 133.17621 64.683594 131.48633 L 64.683594 120.05664 C 64.883356 117.24328 63.74864 116.80619 61.839844 116.87695 L 56.654297 116.87695 C 55.519115 116.89205 55.572769 115.86737 55.595703 114.86914 L 55.677734 105.39062 C 55.657384 104.00007 55.884295 102.68579 53.642578 102.82617 L 51.134766 102.82617 L 51.078125 105.66992 C 50.978255 107.25405 50.342028 108.47197 49.126953 109.23828 L 45.947266 109.23828 C 44.80366 109.23744 44.204154 109.44937 44.330078 111.30078 L 44.330078 146.6543 C 44.307818 147.82791 45.070706 149.26185 45.78125 149.16406 L 48.625 149.16406 L 43.439453 155.51953 L 37.082031 149.16406 L 40.539062 149.16406 C 41.471247 149.18976 42.14736 148.75642 42.044922 147.15625 L 41.792969 109.23828 L 37.025391 109.23828 C 34.921728 109.3597 34.536136 108.43593 34.460938 106.89648 L 34.460938 105.33594 C 34.31931 103.68626 33.89765 102.79161 33.177734 102.82422 L 32.271484 102.82422 C 32.114935 102.81788 31.972047 102.81339 31.84375 102.81836 z M 33.904297 124.85156 L 39.703125 124.85156 C 39.635225 126.22378 39.302478 127.45158 38.085938 128.19727 L 36.46875 128.19727 C 34.128067 127.2471 34.542229 125.99092 33.904297 124.85156 z M 45.558594 124.90625 L 51.078125 124.90625 C 51.014761 126.19336 50.171106 127.1559 48.847656 127.91797 L 45.724609 128.0293 C 45.191543 128.21073 45.014212 125.27683 45.558594 124.90625 z M 37.472656 130.76172 C 38.703563 131.76093 39.986474 132.74708 40.09375 134.05273 L 33.457031 134.10742 C 31.185836 133.1048 31.459074 131.97487 31.171875 130.87305 L 37.472656 130.76172 z M 54.070312 130.86719 C 54.709913 130.92176 54.588505 131.52295 51.859375 133.99609 L 46.115234 133.94141 C 44.895803 133.98371 44.978494 131.06732 45.78125 130.87305 L 53.753906 130.87305 C 53.87097 130.8624 53.978941 130.85939 54.070312 130.86719 z M 28.941406 137.84375 L 39.703125 137.84375 L 39.980469 140.29688 C 39.852525 141.6335 39.105123 142.11833 38.140625 142.30469 L 32.287109 142.36133 C 29.724969 140.81013 29.420283 139.32926 28.941406 137.84375 z M 56.34375 137.89844 C 56.953706 138.05345 55.961361 139.33632 52.974609 142.02539 L 46.115234 141.91406 C 45.003835 141.94746 45.224453 138.20582 46.003906 138.17773 L 55.984375 137.90039 C 56.135787 137.87725 56.256613 137.87629 56.34375 137.89844 z " />
      <path
         style="fill:#d71921;stroke:none;stroke-width:1px;stroke-linecap:butt;stroke-linejoin:miter;stroke-opacity:1;fill-opacity:1"
         d="m 76.690856,123.21796 c -0.659721,-0.35551 -1.489163,1.59262 -0.906884,2.72065 l 1.340612,1.02517 c 1.813786,1.00497 2.786331,-0.7502 2.208065,-1.49833 z"
         id="path1105"
         sodipodi:nodetypes="ccccc" />
      <path
         style="fill:#d71921;stroke:none;stroke-width:1px;stroke-linecap:butt;stroke-linejoin:miter;stroke-opacity:1;fill-opacity:1"
         d="m 79.29322,121.44362 c 0.877464,0.84957 1.442592,1.78838 2.99666,2.44464 1.196259,-0.4335 1.741822,-1.5177 2.444645,-2.44464 0.293361,-1.15303 -0.541161,-1.85491 -1.261752,-2.60236 l -1.734909,-1.65605 -1.57719,1.61662 c -0.376033,0.71769 -1.244909,0.51131 -0.867454,2.64179 z"
         id="path1107"
         sodipodi:nodetypes="ccccccc" />
      <path
         style="fill:#d71921;stroke:none;stroke-width:1px;stroke-linecap:butt;stroke-linejoin:miter;stroke-opacity:1;fill-opacity:1"
         d="m 4.5738506,116.86977 -3.0755202,3.3121 c -0.3998331,0.47385 -0.70660532,0.96516 0.063008,1.65828 l 2.3977695,2.25836 c 0.7010566,0.72122 1.249903,0.52919 1.7286246,-0.0836 l 2.0074349,-1.84015 c 0.4893599,-0.73165 0.6825772,-1.48073 -0.083643,-2.28624 z"
         id="path1109"
         sodipodi:nodetypes="cccccccc" />
      <path
         style="fill:#d71921;stroke:none;stroke-width:1px;stroke-linecap:butt;stroke-linejoin:miter;stroke-opacity:1;fill-opacity:1"
         d="m 9.0334573,124.99071 c 0,0 -1.1334493,0.76705 -1.0037175,1.33829 0.1297318,0.57124 0.027148,2.18536 1.4498141,2.17472 1.0545961,-0.008 1.3050771,-0.47365 1.7007431,-1.08736 0.691189,-2.00038 0.137442,-2.69357 -0.641264,-3.15056 -0.503306,-0.20334 -1.0035964,-0.70757 -1.5055757,0.72491 z"
         id="path1111"
         sodipodi:nodetypes="czsccc" />
      <path
         style="fill:#d71921;stroke:none;stroke-width:1px;stroke-linecap:butt;stroke-linejoin:miter;stroke-opacity:1;fill-opacity:1"
         d="M 16.087336,96.524019 7.8070898,109.06268 c -0.5614083,0.92792 1.0494233,2.42646 2.168636,1.22232 l 3.7063962,-5.04701 c 0.814882,-1.09761 2.02406,-1.27222 2.681223,0.0789 l 2.878371,5.40188 3.233239,-0.0394 c -1.406029,-4.82971 -3.615677,-9.53578 -6.387619,-14.155351 z"
         id="path1113"
         sodipodi:nodetypes="cccccccc" />
      <path
         style="fill:#d71921;stroke:none;stroke-width:1px;stroke-linecap:butt;stroke-linejoin:miter;stroke-opacity:1;fill-opacity:1"
         d="m 14.628436,107.95865 c -0.815615,1.18789 -1.13357,2.80235 -2.602363,3.43038 0.867872,0.97135 1.72012,1.98957 2.484074,3.27267 l 1.261751,-1.0646 c 0.376139,-3.54553 -0.52929,-4.27161 -1.143462,-5.63845 z"
         id="path1115"
         sodipodi:nodetypes="ccccc" />
      <path
         style="fill:#d71921;stroke:none;stroke-width:1px;stroke-linecap:butt;stroke-linejoin:miter;stroke-opacity:1;fill-opacity:1"
         d="m 42.936803,77.620818 -9.702602,15.390335 c 2.952015,0.420799 5.61008,-2.979746 8.252788,-6.579926 1.439115,-2.187688 1.919699,-0.54125 2.67658,0 5.211005,7.217086 6.485017,6.341465 8.02974,6.022305 z"
         id="path1117"
         sodipodi:nodetypes="cccccc" />
      <path
         sodipodi:nodetypes="ccccc"
         id="path1115-6"
         d="m 42.807496,88.795793 c -1.016904,1.39053 -1.334469,3.122679 -3.165752,3.857844 1.436925,1.689067 1.868628,2.723265 3.09713,3.83095 l 1.849152,-1.12792 c 1.257564,-3.874348 0.246969,-4.329991 -1.78053,-6.560874 z"
         style="fill:#d71921;fill-opacity:1;stroke:none;stroke-width:1.20809px;stroke-linecap:butt;stroke-linejoin:miter;stroke-opacity:1" />
      <path
         style="fill:#d71921;stroke:none;stroke-width:1px;stroke-linecap:butt;stroke-linejoin:miter;stroke-opacity:1;fill-opacity:1"
         d="m 69.790651,95.814283 -5.677884,13.169537 c -0.816277,1.05332 -1.06605,1.3513 -1.261752,1.57719 1.911665,0.78223 4.029644,-0.49868 6.466479,-4.96815 0.851137,-1.49899 0.582139,-2.12743 2.405214,0.11829 2.148294,2.06326 3.751282,5.35346 7.057925,4.81043 z"
         id="path1134"
         sodipodi:nodetypes="ccccccc" />
      <path
         style="fill:#d71921;stroke:none;stroke-width:1px;stroke-linecap:butt;stroke-linejoin:miter;stroke-opacity:1;fill-opacity:1"
         d="m 70.483272,108.20632 c -1.505056,0.37993 -0.925482,6.9671 0.139405,6.97026 1.064887,0.003 1.365651,-7.35019 -0.139405,-6.97026 z"
         id="path1136"
         sodipodi:nodetypes="zzz" />
    </g>
    <path
       sodipodi:nodetypes="cccc"
       id="path1164"
       d="m 125.79926,87.434944 c -2.89741,4.043028 -5.8425,8.080097 -7.58365,12.267658 l 15.61339,0.223049 c -1.37568,-4.721098 -4.6049,-8.64782 -8.02974,-12.490707 z"
       style="fill:#d71921;stroke:none;stroke-width:1px;stroke-linecap:butt;stroke-linejoin:miter;stroke-opacity:1;fill-opacity:1" />
    <g
       id="g1193">
      <path
         style="fill:#d71921;stroke:none;stroke-width:1px;stroke-linecap:butt;stroke-linejoin:miter;stroke-opacity:1;fill-opacity:1"
         d="m 125.74349,67.639405 c -1.7305,2.477529 -2.76731,4.33073 -5.85501,8.02974 1.35772,3.393234 3.6975,5.662987 5.85501,8.141264 3.70687,-3.123946 5.54684,-5.536698 6.13383,-7.472119 -1.45418,-3.253883 -4.01423,-5.844249 -6.13383,-8.698885 z"
         id="path1166"
         sodipodi:nodetypes="ccccc" />
      <path
         style="fill:#d71921;stroke:none;stroke-width:1px;stroke-linecap:butt;stroke-linejoin:miter;stroke-opacity:1;fill-opacity:1"
         d="m 125.24164,58.215613 -6.30112,4.572491 c 1.74835,2.112557 4.02283,3.202151 6.4684,3.959108 2.72509,-0.982133 4.95229,-2.317349 6.74721,-3.959108 -1.0112,-2.419754 -4.03068,-3.449163 -6.91449,-4.572491 z"
         id="path1168"
         sodipodi:nodetypes="ccccc" />
      <path
         style="fill:#d71921;stroke:none;stroke-width:1px;stroke-linecap:butt;stroke-linejoin:miter;stroke-opacity:1;fill-opacity:1"
         d="m 121.78439,56.542751 c -1.95838,-2.249779 -5.37072,-3.471759 -9.03346,-4.516729 l -14.944238,4.795539 15.836428,3.903346 c 3.2044,-0.412763 5.8271,-1.988929 8.14127,-4.182156 z"
         id="path1170"
         sodipodi:nodetypes="ccccc" />
      <path
         style="fill:#d71921;stroke:none;stroke-width:1px;stroke-linecap:butt;stroke-linejoin:miter;stroke-opacity:1;fill-opacity:1"
         d="m 134.27509,51.858736 c -1.54245,0.935365 -3.81093,2.354746 -6.69145,4.182156 1.26717,1.486989 3.63815,2.973978 5.91078,4.460967 8.07548,-0.119095 12.87235,-1.937944 18.2342,-4.182156 -7.51051,-1.196877 -7.24654,-2.853161 -17.45353,-4.460967 z"
         id="path1172"
         sodipodi:nodetypes="ccccc" />
      <path
         style="fill:#d71921;stroke:none;stroke-width:1px;stroke-linecap:butt;stroke-linejoin:miter;stroke-opacity:1;fill-opacity:1"
         d="m 125.46468,46.115242 c -2.24907,0.802308 -4.49814,2.171864 -6.74721,4.01487 1.9262,1.848708 3.6109,3.904414 6.52417,4.907063 3.18284,-1.470845 5.24184,-3.02181 7.30483,-4.572491 -2.0299,-2.111207 -4.63786,-3.066294 -7.08179,-4.349442 z"
         id="path1174"
         sodipodi:nodetypes="ccccc" />
      <path
         style="fill:#d71921;stroke:none;stroke-width:1px;stroke-linecap:butt;stroke-linejoin:miter;stroke-opacity:1;fill-opacity:1"
         d="m 82.881327,43.609299 c 9.410449,-2.68132 18.565863,-5.575169 29.178013,-7.255073 5.08914,1.20474 8.82386,3.538158 12.69638,5.756743 l 1.81377,0.07886 c 4.55743,-3.442837 8.13968,-5.027506 11.35576,-5.914461 10.39403,1.332796 20.10063,4.269582 29.88775,7.018494 -9.96258,2.616653 -19.92517,5.309996 -29.88775,6.703057 -2.96847,-0.891455 -6.87973,-2.914258 -10.88261,-5.047007 h -2.28692 c -2.35308,1.103502 -3.59367,1.173969 -8.67455,4.810429 C 103.70091,49.211302 93.92329,45.68782 82.881327,43.609299 Z"
         id="path1176"
         sodipodi:nodetypes="ccccccccccc" />
      <path
         style="fill:#d71921;stroke:none;stroke-width:1px;stroke-linecap:butt;stroke-linejoin:miter;stroke-opacity:1;fill-opacity:1"
         d="m 98.258928,29.099153 c 5.163472,-2.418547 10.451362,-5.272559 15.219882,-6.30876 4.90868,1.586605 7.21673,3.462356 10.01516,5.283586 l 4.02183,-0.07886 7.41279,-4.73157 c 5.27026,-1.315066 12.08071,3.530671 18.2954,5.993322 -1.44677,1.25144 -7.41425,3.407022 -15.14102,5.914462 l -11.35577,-5.362446 -2.44464,0.157719 c -3.37195,2.016146 -6.78016,4.011573 -11.59235,5.204727 -6.05301,-1.558091 -9.94274,-3.927414 -14.431282,-6.07218 z"
         id="path1178"
         sodipodi:nodetypes="ccccccccccc" />
      <path
         style="fill:#d71921;stroke:none;stroke-width:1px;stroke-linecap:butt;stroke-linejoin:miter;stroke-opacity:1;fill-opacity:1"
         d="m 124.9923,30.912921 -5.99333,3.785256 5.44131,5.047007 c 1.35598,0.874351 2.45665,-0.503386 3.62754,-1.261752 l 3.07552,-2.444644 c 2.6426,-1.990199 -4.01313,-3.422498 -6.15104,-5.125867 z"
         id="path1180"
         sodipodi:nodetypes="cccccc" />
      <path
         style="fill:#d71921;stroke:none;stroke-width:1px;stroke-linecap:butt;stroke-linejoin:miter;stroke-opacity:1;fill-opacity:1"
         d="m 125.38659,9.3842796 c 5.74952,5.1778434 7.57416,6.9190124 0.31544,14.5101464 -6.48658,-7.112927 -5.19835,-7.214335 -0.31544,-14.5101464 z"
         id="path1182"
         sodipodi:nodetypes="ccc" />
    </g>
  </g>
</svg>
