<svg viewBox="0 0 291.11 337.55" xmlns="http://www.w3.org/2000/svg"><g fill="#6e6a67"><path d="m99.44 107.79c-1.47 1.68-3.57 2.89-4.67 4.77s-1.59 4.18-2.34 6.25-1.52 4.17-1.9 6.34-.38 4.41-.38 6.61.67 4.32 1.05 6.5.69 4.31 1.44 6.38 1.35 4.21 2.47 6.12 2.91 3.26 4.38 4.93c2.01 2.3 1.54 2.71 3.54 5 2.01 2.3 2.04 2.27 4.04 4.57s1.91 2.38 3.91 4.68 2.24 2.09 4.24 4.39c2.01 2.3 2.36 1.99 4.37 4.28 2.01 2.3 1.92 2.38 3.92 4.68 2.01 2.3 1.75 2.53 3.76 4.82 2.01 2.3 1.82 2.47 3.82 4.77 1.48 1.7 2.4 3.71 3.14 5.84s.86 4.28.86 6.53.15 4.52-.58 6.63-1.72 4.24-3.2 5.93c-1.23 1.41-2.89 2.17-4.4 2.94-1.62.82-3.23 1.63-5.01 1.63s-3.39-.8-5.01-1.62c-1.51-.77-3.09-1.59-4.33-3-.86-.98-1.38-2.69-1.96-4.63-.45-1.5-1.46-3.13-1.46-4.93 0-1.62.77-3.29 1.33-4.97.6-1.81.8-3.91 1.75-5.5 1.04-1.74 2.43-3.25 3.51-4.57 2.08-2.53 4.48-4.08 4.51-4.1-1.95-2.28-2.12-2.13-4.08-4.4s-1.78-2.43-3.75-4.69-2.12-2.15-4.3-4.21c-.45.39-1.94 2.34-4.29 5.02-1.29 1.47-3.61 2.55-5.01 4.57-1.2 1.73-1.65 4.12-2.72 6.19-1 1.92-1.47 4.08-2.18 6.25-.6 1.84-1.86 3.44-2.14 5.25-.29 1.91.38 3.81.4 5.65s-.06 3.76.26 5.57c.34 1.91.7 3.72 1.3 5.45.65 1.84.8 3.88 1.68 5.46.97 1.74 2.3 3.22 3.46 4.56 1.46 1.67 2.9 3.43 4.58 4.72 1.74 1.34 3.81 2.29 5.75 3.21 1.96.93 4.25.87 6.37 1.35 2.1.47 4.13.97 6.33.97s4.42.3 6.51-.17 4.04-1.6 6-2.53c1.94-.92 3.52-2.35 5.26-3.7s3.33-2.59 4.78-4.26c1.3-1.49 2.62-2.9 3.64-4.56 1.03-1.68 1.5-3.58 2.24-5.38s1.28-3.61 1.73-5.52.67-3.76.82-5.72.31-3.83.17-5.78.65-4.07.2-5.98-1.63-3.64-2.38-5.46-1.69-3.52-2.73-5.19-2.55-2.89-3.85-4.39c-2.01-2.3-1.22-2.98-3.23-5.28s-1.93-2.36-3.94-4.66-2.79-1.61-4.79-3.91-1.7-2.56-3.71-4.86-1.9-2.38-3.91-4.68-1.49-2.75-3.5-5.05-2.55-1.83-4.56-4.13-1.91-2.39-3.91-4.69c-1.48-1.7-2.36-3.7-3.09-5.84s-2.13-4.25-2.13-6.51 1.12-4.49 1.85-6.6 2.19-3.79 3.67-5.49c1.23-1.41 2.31-2.72 3.82-3.48 1.62-.82 3.27-1.47 5.04-1.47s3.29.92 4.9 1.74c1.51.77 3.69.95 4.92 2.37.86.98 1.67 2.89 2.25 4.82.45 1.5.85 3.36.85 5.17 0 1.62-.66 3.38-1.22 5.07-.6 1.81-1.45 3.6-2.4 5.2-1.05 1.74-2.97 2.74-4.06 4.05-2.08 2.52-3.42 4.68-3.45 4.71 2.94 3.4 2.71 3.61 5.66 7 1.48 1.7 1.52 1.65 3 3.35 1.47 1.7 1.82 1.36 3.51 2.86.45-.39 2.37-1.59 4.72-4.28 1.29-1.47 2.79-3.23 4.2-5.25 1.2-1.73 1.63-4.09 2.7-6.16 1-1.92 1.68-3.97 2.4-6.14.6-1.84 2.26-3.38 2.54-5.19.29-1.91-.19-3.88-.22-5.72s-.11-3.82-.43-5.63c-.34-1.91-.35-3.92-.95-5.64-.65-1.84-2.14-3.29-3.03-4.86-.97-1.74-1.41-3.81-2.58-5.14-1.46-1.67-3.35-2.97-5.03-4.26s-3.86-2.06-5.8-2.98-4-1.51-6.12-1.99-4.18-1.56-6.38-1.56-4.38.65-6.48 1.12-4.37.81-6.34 1.75c-1.94.92-3.36 2.79-5.11 4.13s-3.08 2.87-4.54 4.54z"/><path d="m141.86 85.64c.97-1.45-1.31-2.67-3.15-5.18-1.83-2.51-2.19-2.25-4.03-4.76s-1.63-2.66-3.47-5.18c-1.84-2.51-2.49-2.04-4.33-4.55s-1.29-4.83-3.2-4.83-1.44 2.26-3.28 4.77c-1.83 2.51-2.8 1.81-4.63 4.32-1.84 2.51-1.09 3.06-2.93 5.57s-2.21 2.24-4.05 4.76-4.59 4.3-4.09 5.47 3.67-.18 6.73-.18 3.06-.66 6.12-.66 3.06.06 6.12.06 3.06 1.01 6.12 1.01 3.16-1.27 6.13-.54c3.22.8 4.96 1.37 5.94-.08z"/><path d="m142.65 251c-.61-1.18-3.66.18-6.72.18s-3.06-.17-6.12-.17-3.06-.37-6.12-.37-3.06 1.32-6.12 1.32-3.06-1.39-6.12-1.39-5.34-.91-6.47.55 1.69 3.04 3.52 5.55 1.76 2.57 3.59 5.08c1.84 2.51 2.97 1.68 4.81 4.2s1.78 2.55 3.62 5.07c1.84 2.51 1.85 4.67 3.16 4.67s1.64-1.92 3.47-4.43 1.86-2.49 3.7-5 2.34-2.14 4.18-4.66.9-3.33 3.32-5.29c2.92-2.37 4.91-4.13 4.29-5.31z"/><path d="m35.55 304.4c-.98 1.98-.74 2.19-.84 5.38s-.6 2.37-.69 5.56.1 4.34.01 7.53.48 4.1.38 7.29-1.11 6.26.61 7.19 2.82-1.81 5.29-3.67c2.47-1.85 2.16-2.25 4.63-4.11 2.47-1.85 2.17-2.25 4.64-4.1s3.18-.9 5.65-2.76c2.47-1.85 3.2-1.39 4.87-3.98s.76-3.1 1.42-6.11 1.01-2.93 1.67-5.94.33-3.08.99-6.09.59-3.03 1.25-6.04.31-3.09.97-6.1.45-3.06 1.11-6.07.52-3.04 1.18-6.05.71-3 1.37-6.01.84-2.97 1.5-5.98.78-2.98 1.44-6 .5-3.05 1.16-6.06.14-3.13.8-6.14 1.54-2.82 2.2-5.83-.18-3.2.48-6.21 1.8-2.76 2.46-5.78.9-2.96 1.56-5.98 2.85-5.99.94-6.7c-1.92-.72-1.3 3.32-2.66 5.94s-1.5 2.55-2.85 5.16-1.83 2.38-3.19 4.99-.83 2.89-2.19 5.51-1.33 2.63-2.69 5.25-1.69 2.44-3.05 5.06-1.61 2.49-2.97 5.11-1.11 2.75-2.47 5.36c-1.36 2.62-1.8 2.39-3.16 5.01s-1.49 2.55-2.85 5.17-.87 2.87-2.23 5.49-1.51 2.54-2.87 5.16-1.69 2.45-3.05 5.07-.19 3.23-1.54 5.84-2.59 1.98-3.95 4.6-1.02 2.79-2.42 5.4-1.61 1.98-2.92 4.63z"/><path d="m65.46 200.22c-.91-1.17-3.19 1.31-5.62 2.92s-1.95 2.32-4.38 3.93c-2.42 1.61-2.43 1.59-4.86 3.2s-2.36 1.71-4.78 3.31c-2.43 1.61-2.95.81-5.38 2.42s-2.09 2.11-4.52 3.72-2.19 1.96-4.62 3.57-2.26 1.86-4.68 3.47c-2.43 1.61-2.6 1.34-5.03 2.95s-2.6 1.35-5.03 2.96-2.1 2.1-4.53 3.71-3.15.59-4.86 2.95c-1.95 2.69-1.69 2.8-2.72 5.96s-1.27 3.08-2.3 6.24-2.12 5.2-1.51 6.5 3.33.54 6.51.37c3.18-.18 3.35-.14 6.54-.32s3.36.62 6.21-.8c2.7-1.34 1.89-2.54 3.78-4.89s1.28-2.84 3.17-5.19 2.3-2.02 4.19-4.37 2.03-2.24 3.92-4.59 1.8-2.42 3.69-4.78c1.89-2.35 1.67-2.52 3.56-4.88 1.89-2.35 1.53-2.64 3.42-4.99s2-2.26 3.89-4.61 2.74-1.67 4.63-4.02 1.91-2.33 3.8-4.69.96-3.21 3.38-5.02c2.94-2.19 5.05-3.85 4.14-5.03z"/><path d="m173.28 195.79c2.92.77 2.79.21 5.73-.49s2.85-1.07 5.79-1.77 3.13.11 6.07-.59 2.92-.78 5.86-1.48 2.89-.9 5.83-1.6 2.87-.99 5.81-1.69 2.93-.77 5.87-1.47 3.11.02 6.05-.68 2.72-1.62 5.66-2.32 3.04-.28 5.98-.98 2.91-.83 5.85-1.53 3.01-.43 5.95-1.12c2.94-.7 2.95-.67 5.89-1.37s2.75-1.51 5.69-2.21 3.19.36 6.13-.34 2.8-1.29 5.74-1.99 2.92-.77 5.86-1.47 2.97-.61 5.91-1.31 3.16-.4 6.11-1.1c2.94-.7 6.04-.34 6.04-1.75s-4.02-1.23-6.96-1.93-3.1-.8-6.04-1.5-1.95-.6-4.89-1.3-3.03-.31-5.97-1.01-3.13.1-6.07-.6-2.94-.71-5.88-1.41-2.78-1.36-5.73-2.06c-2.94-.7-3.08-.1-6.02-.8s-2.66-1.9-5.6-2.6-3.11.02-6.05-.68-3-.45-5.94-1.15-2.68-1.78-5.62-2.48-2.95-.67-5.89-1.37-3.17.25-6.11-.45-2.77-1.4-5.71-2.1-2.92-.77-5.87-1.48c-2.94-.7-3.07-.16-6.01-.86s-3.05-.26-5.99-.96-2.87-1.03-5.81-1.73-3.04-2.72-5.97-1.95c-2.75.72-1.67 2.66-3.69 4.65-2.02 2-1.87 2.15-3.89 4.15s-2.12 1.9-4.14 3.89c-2.02 2-2.26 1.75-4.28 3.75s-1.94 2.08-3.96 4.07c-2.02 2-1.8 2.22-3.83 4.23s-3.8 2.2-3.8 3.66 1.3 2.13 3.32 4.13 1.93 2.09 3.95 4.09 2.38 1.63 4.4 3.63 2.11 1.9 4.13 3.9 1.38 2.64 3.4 4.64 2.09 1.86 3.93 4.04c1.77 2.1 2 2.12 4.76 2.84zm70.02-27.28c0 1.35-3.67.48-6.55 1.14s-2.79 1.03-5.67 1.69-3.07-.15-5.95.51-2.86.74-5.75 1.4c-2.88.66-2.84.86-5.72 1.52s-2.82.95-5.7 1.61-2.87.73-5.75 1.39-3.05-.06-5.93.6-2.67 1.58-5.56 2.24-2.98.24-5.87.9-4.39 2.19-5.68 1.47.31-2.85.31-5.75.03-2.9.03-5.8-.84-2.91-.84-5.81 1.09-2.91 1.09-5.81-2.02-5.39-.62-5.79c1.4-.39 2.87.59 5.75 1.25s2.86.75 5.74 1.41 3.04-.04 5.92.62 2.65 1.68 5.53 2.34 3.08-.19 5.96.47 2.87.7 5.76 1.36c2.88.66 2.66 1.62 5.55 2.28 2.88.66 2.97.27 5.85.93s3.07-.14 5.95.52c2.89.66 2.64 1.4 5.6 1.32 3.74-.1 6.54.63 6.54 1.99z"/><path d="m82.22 120.68c1.16-.37-.06-2.96-.72-5.97s-1.06-2.92-1.72-5.93-.75-2.99-1.41-6-.61-3.02-1.27-6.03-.42-3.06-1.08-6.08-.28-3.09-.94-6.11-1.09-2.92-1.75-5.93-.45-3.05-1.11-6.06-1.51-2.82-2.17-5.83-.28-3.1-.94-6.11-.67-3.01-1.33-6.02-.74-2.99-1.4-6.01-.38-3.08-1.04-6.09-.24-3.1-.9-6.11-.59-3.03-1.25-6.04-1.27-2.88-1.93-5.9.05-3.28-1.62-5.88-1.83-2.57-4.29-4.42-3.23-.83-5.7-2.68-2.46-1.86-4.93-3.71-2.11-2.34-4.58-4.19-2.76-3.14-4.92-3.54c-2.16-.39.13 3.07.23 6.26s.25 3.18.34 6.37-.22 3.2-.13 6.39-.31 3.21-.21 6.4.5 3.12 1.27 6.22c.71 2.86.86 2.71 2.22 5.33s.71 2.96 2.06 5.57 2.29 2.14 3.65 4.75 1.31 2.64 2.67 5.26.43 3.1 1.79 5.72 2.01 2.27 3.37 4.89 1.08 2.76 2.44 5.38q1.36 2.62 2.72 5.23c1.36 2.62 2.09 2.24 3.44 4.86s1.48 2.56 2.84 5.18.53 3.05 1.89 5.67 1.7 2.44 3.06 5.06.62 3 1.98 5.62 1.44 2.58 2.79 5.2c1.36 2.62 1.54 2.53 2.9 5.15s2.31 2.22 2.99 5.09c.78 3.29 1.52 5.44 2.68 5.07z"/><path d="m19.89 79.76c-2.85-1.42-3.36.34-6.54.16s-3.16-.49-6.35-.67-4.51-1.31-6.34-.22c-1.82 1.1.55 3.28 1.58 6.44s.8 3.24 1.83 6.4.25 3.8 2.2 6.49c1.71 2.35 2.8 1.46 5.22 3.07s2.89.91 5.31 2.51c2.42 1.61 2.22 1.91 4.65 3.52s2.06 2.17 4.48 3.77 2.54 1.44 4.97 3.05 2.9.89 5.33 2.5q2.43 1.61 4.86 3.21c2.43 1.61 2.12 2.07 4.54 3.68 2.43 1.61 2.28 1.83 4.71 3.44s2.74 1.14 5.17 2.75 2.15 2.03 4.58 3.64 3.5 3.88 4.76 2.89-1.3-2.5-3.18-4.85c-1.89-2.35-2.66-1.73-4.55-4.08s-1.43-2.72-3.32-5.07-1.5-2.66-3.39-5.01-2.82-1.61-4.71-3.96-.91-3.14-2.8-5.49-1.82-2.4-3.71-4.76-2.6-1.78-4.49-4.13-1.33-2.8-3.22-5.15-2.21-2.1-4.1-4.45-2.37-2.01-3.85-4.65c-1.56-2.78-.95-3.67-3.65-5.02z"/></g></svg>